<svg xmlns="http://www.w3.org/2000/svg" id="tasks-management" enable-background="new 0 0 66 66" viewBox="0 0 66 66">
  <circle cx="55.93" cy="47.91" r=".68" fill="#f4f3f7"></circle>
  <path fill="#f4f3f7" d="M34.07 7.57c.4 0 .71-.32.71-.71 0-.39-.32-.71-.71-.71-.39 0-.71.32-.71.71C33.36 7.26 33.68 7.57 34.07 7.57zM2.18 35.97c0 .4.32.71.71.71.4 0 .71-.32.71-.71 0-.39-.32-.71-.71-.71C2.5 35.26 2.18 35.58 2.18 35.97zM2.42 16.49c0-.39-.32-.71-.71-.71C1.32 15.78 1 16.1 1 16.49c0 .4.32.71.71.71C2.11 17.2 2.42 16.89 2.42 16.49zM46.31 11.21c1.07 0 1.93-.87 1.93-1.93 0-1.07-.87-1.93-1.93-1.93-1.07 0-1.93.87-1.93 1.93C44.37 10.35 45.24 11.21 46.31 11.21zM46.31 7.87c.78 0 1.41.63 1.41 1.41 0 .78-.63 1.41-1.41 1.41-.78 0-1.41-.63-1.41-1.41C44.89 8.5 45.53 7.87 46.31 7.87zM3.8 45.4c-1.07 0-1.93.87-1.93 1.93 0 1.07.87 1.93 1.93 1.93 1.07 0 1.93-.87 1.93-1.93C5.73 46.26 4.86 45.4 3.8 45.4zM3.8 48.74c-.78 0-1.41-.63-1.41-1.41s.63-1.41 1.41-1.41 1.41.63 1.41 1.41S4.58 48.74 3.8 48.74zM61.35 57.2c-.04-.03-.06-.07-.05-.12l.05-.65c.01-.12-.12-.19-.22-.13l-.55.36c-.04.03-.09.03-.13.01l-.61-.25c-.11-.04-.22.05-.19.17l.17.63c.01.04 0 .09-.03.13l-.42.5c-.07.09-.02.22.1.23l.66.03c.05 0 .09.03.11.07l.35.56c.06.1.21.08.25-.02l.23-.61c.02-.04.05-.08.1-.09l.64-.16c.11-.03.14-.17.05-.24L61.35 57.2z"></path>
  <path fill="#f4f3f7" d="M60.85,34.95H45.08c0.18,0,0.36-0.01,0.53-0.04c-1.93-0.25-3.56-1.74-3.75-3.71c-0.21-2.25,1.38-4.17,3.49-4.5H58.5c2.29,0,4.15-1.86,4.15-4.15c0-2.29-1.86-4.15-4.15-4.15H37.19c2.29-0.01,4.14-1.86,4.14-4.15c0-2.29-1.86-4.15-4.15-4.15H13.3c-2.29,0-4.15,1.86-4.15,4.15c0,2.29,1.86,4.15,4.15,4.15h7.69c2.29,0.01,4.14,1.86,4.14,4.15c0,2.06-1.5,3.77-3.47,4.09h-3.93c-2.42,0-4.36,2.08-4.13,4.56c0.2,2.16,2.13,3.75,4.3,3.75H7.92c-2.43,0-4.37,2.08-4.13,4.56c0.21,2.16,2.14,3.74,4.31,3.74h12.95v0h0.88c2.29,0,4.15,1.86,4.15,4.15c0,2.29-1.86,4.15-4.15,4.15h-0.88v0h-9.24c-2.42,0-4.36,2.07-4.13,4.54c0.2,2.16,2.13,3.76,4.3,3.76h40.07c2.43,0,4.37-2.09,4.13-4.56c-0.21-2.15-2.14-3.74-4.3-3.74h-1.4c-2.29,0-4.15-1.86-4.15-4.15c0-2.29,1.86-4.15,4.15-4.15h10.2c2.17,0,4.1-1.58,4.31-3.74C65.22,37.03,63.28,34.95,60.85,34.95z"></path>
  <g>
    <path fill="#7cedcb" d="M54.12,23.11l-1.13-0.21c-0.3-0.06-0.52-0.28-0.6-0.57c-0.19-0.68-0.46-1.33-0.8-1.93c-0.15-0.26-0.15-0.58,0.02-0.83l0.65-0.96c0.21-0.31,0.17-0.71-0.09-0.98l-1.1-1.1c-0.26-0.26-0.66-0.3-0.97-0.09l-0.96,0.65c-0.24,0.17-0.57,0.17-0.83,0.02c-0.6-0.34-1.25-0.61-1.93-0.79c-0.29-0.08-0.51-0.31-0.57-0.6l-0.21-1.14c-0.07-0.36-0.38-0.62-0.75-0.62h-1.56c-0.37,0-0.69,0.26-0.75,0.62l-0.21,1.14c-0.06,0.3-0.28,0.52-0.57,0.6c-0.68,0.19-1.32,0.45-1.92,0.79c-0.26,0.15-0.58,0.15-0.83-0.02l-0.97-0.65c-0.31-0.2-0.71-0.17-0.97,0.09l-1.1,1.1c-0.26,0.26-0.3,0.67-0.09,0.98l0.65,0.96c0.17,0.24,0.17,0.57,0.02,0.83c-0.34,0.6-0.61,1.25-0.8,1.93c-0.08,0.29-0.31,0.51-0.6,0.57L34,23.11c-0.36,0.07-0.62,0.38-0.62,0.75v1.56c0,0.37,0.26,0.69,0.62,0.75l1.13,0.21c0.3,0.06,0.52,0.28,0.6,0.57c0.19,0.68,0.46,1.33,0.8,1.93c0.15,0.26,0.15,0.58-0.02,0.83l-0.65,0.96c-0.21,0.31-0.17,0.71,0.09,0.98l1.1,1.1c0.26,0.26,0.66,0.3,0.97,0.09L39,32.19c0.24-0.17,0.57-0.17,0.83-0.02c0.6,0.34,1.24,0.6,1.92,0.79c0.29,0.08,0.51,0.31,0.57,0.6l0.21,1.14c0.07,0.36,0.38,0.62,0.75,0.62h1.56c0.37,0,0.69-0.26,0.75-0.62l0.21-1.14c0.06-0.3,0.29-0.52,0.57-0.6c0.68-0.19,1.32-0.45,1.93-0.79c0.26-0.15,0.58-0.15,0.83,0.02l0.96,0.65c0.31,0.21,0.71,0.17,0.97-0.09l1.1-1.1c0.26-0.26,0.3-0.67,0.09-0.98l-0.65-0.96c-0.17-0.24-0.17-0.57-0.02-0.83c0.34-0.6,0.61-1.25,0.8-1.93c0.08-0.29,0.31-0.51,0.6-0.57l1.13-0.21c0.36-0.07,0.62-0.38,0.62-0.75v-1.56C54.74,23.49,54.48,23.18,54.12,23.11z M44.06,29.34c-2.59,0-4.69-2.1-4.69-4.69c0-2.59,2.1-4.69,4.69-4.69c2.59,0,4.69,2.1,4.69,4.69C48.76,27.23,46.65,29.34,44.06,29.34z"></path>
    <path fill="#241c70" d="M44.84,35.87h-1.56c-0.63,0-1.17-0.45-1.29-1.07l-0.21-1.14c-0.02-0.08-0.09-0.15-0.19-0.18c-0.72-0.2-1.4-0.48-2.04-0.84c-0.09-0.05-0.18-0.05-0.25,0l-0.97,0.65c-0.53,0.35-1.22,0.28-1.66-0.16l-1.1-1.1c-0.45-0.45-0.51-1.15-0.16-1.67l0.65-0.96c0.05-0.07,0.04-0.17,0-0.25c-0.37-0.64-0.65-1.34-0.85-2.05c-0.03-0.1-0.1-0.17-0.18-0.18l-1.13-0.21c-0.62-0.11-1.07-0.66-1.07-1.29v-1.56c0-0.63,0.45-1.17,1.07-1.29l1.13-0.21c0.12-0.02,0.17-0.14,0.18-0.19c0.2-0.71,0.48-1.41,0.85-2.05c0.05-0.08,0.05-0.18,0-0.25l-0.65-0.96c-0.35-0.52-0.29-1.22,0.16-1.67l1.1-1.1c0.44-0.44,1.14-0.51,1.66-0.16l0.97,0.66c0.07,0.05,0.17,0.05,0.25,0c0.64-0.36,1.33-0.65,2.05-0.84c0.09-0.03,0.16-0.1,0.18-0.18l0.21-1.14c0.12-0.62,0.66-1.07,1.29-1.07h1.56c0.63,0,1.17,0.45,1.29,1.07l0.21,1.14c0.02,0.1,0.11,0.16,0.19,0.18c0.72,0.2,1.41,0.48,2.04,0.84c0.08,0.05,0.18,0.05,0.25,0L49.79,16c0.52-0.35,1.22-0.29,1.66,0.15l1.1,1.1c0.44,0.44,0.51,1.15,0.16,1.67l-0.65,0.96c-0.05,0.07-0.04,0.17,0,0.25c0.36,0.64,0.65,1.33,0.85,2.05c0.01,0.04,0.06,0.16,0.18,0.18l1.13,0.21c0.62,0.12,1.07,0.66,1.07,1.29v1.56c0,0.63-0.45,1.17-1.07,1.29l-1.13,0.21c-0.12,0.02-0.17,0.14-0.18,0.19c-0.2,0.71-0.48,1.41-0.85,2.05c-0.05,0.08-0.05,0.18,0,0.25l0.65,0.96c0.35,0.52,0.29,1.22-0.16,1.67l-1.1,1.1c-0.44,0.44-1.14,0.51-1.66,0.15l-0.96-0.65c-0.07-0.05-0.17-0.04-0.25,0c-0.64,0.36-1.33,0.65-2.05,0.84c-0.07,0.02-0.16,0.08-0.18,0.18l-0.21,1.13C46.01,35.42,45.47,35.87,44.84,35.87z M39.42,31.52c0.23,0,0.47,0.06,0.67,0.18c0.55,0.31,1.16,0.56,1.79,0.74c0.5,0.14,0.87,0.54,0.96,1.02l0.21,1.15c0.02,0.1,0.11,0.18,0.22,0.18h1.56c0.11,0,0.2-0.07,0.22-0.18l0.21-1.14c0.09-0.49,0.46-0.88,0.96-1.03c0.64-0.18,1.25-0.43,1.81-0.74c0.45-0.25,0.99-0.23,1.4,0.04l0.96,0.65c0.09,0.06,0.21,0.05,0.28-0.02l1.1-1.1c0.08-0.08,0.09-0.19,0.03-0.29l-0.65-0.96c-0.28-0.41-0.3-0.95-0.05-1.4c0.32-0.57,0.58-1.18,0.75-1.81c0.14-0.5,0.53-0.87,1.02-0.96l1.13-0.21c0.11-0.02,0.18-0.11,0.18-0.22v-1.56c0-0.11-0.07-0.2-0.18-0.22c0,0,0,0,0,0l-1.13-0.21c-0.49-0.09-0.88-0.46-1.02-0.96c-0.18-0.64-0.43-1.25-0.75-1.81c-0.25-0.45-0.23-1,0.04-1.4l0.65-0.95c0.06-0.09,0.05-0.21-0.03-0.29l-1.1-1.1c-0.07-0.07-0.19-0.08-0.28-0.02l-0.96,0.65c-0.4,0.27-0.95,0.29-1.4,0.05c-0.56-0.32-1.17-0.57-1.81-0.75c-0.5-0.15-0.87-0.54-0.96-1.02l-0.21-1.14c-0.02-0.1-0.11-0.18-0.22-0.18h-1.56c-0.11,0-0.2,0.08-0.22,0.18l-0.21,1.14c-0.09,0.49-0.46,0.88-0.96,1.03c-0.64,0.18-1.24,0.42-1.8,0.74c-0.44,0.25-0.99,0.24-1.4-0.04l-0.96-0.65c-0.09-0.06-0.21-0.05-0.28,0.03l-1.1,1.1c-0.08,0.08-0.09,0.19-0.03,0.29l0.65,0.95c0.28,0.4,0.29,0.95,0.05,1.4c-0.32,0.57-0.58,1.18-0.75,1.81c-0.14,0.5-0.54,0.87-1.02,0.96l-1.13,0.21c-0.11,0.02-0.18,0.11-0.18,0.22v1.56c0,0.11,0.07,0.2,0.18,0.22l1.13,0.21c0.49,0.09,0.88,0.46,1.02,0.96c0.18,0.64,0.43,1.25,0.75,1.81c0.25,0.45,0.24,0.99-0.04,1.4l-0.65,0.95c-0.06,0.09-0.05,0.21,0.03,0.29l1.1,1.1c0.08,0.07,0.19,0.09,0.29,0.02l0.96-0.65C38.91,31.59,39.16,31.52,39.42,31.52z M44.06,29.88c-2.89,0-5.24-2.35-5.24-5.24c0-2.89,2.35-5.24,5.24-5.24c2.89,0,5.24,2.35,5.24,5.24C49.3,27.53,46.95,29.88,44.06,29.88z M44.06,20.49c-2.29,0-4.15,1.86-4.15,4.15s1.86,4.15,4.15,4.15c2.29,0,4.15-1.86,4.15-4.15S46.35,20.49,44.06,20.49z"></path>
    <path fill="#fff" d="M51.43,46.17l-0.94-0.18c-0.25-0.05-0.43-0.23-0.5-0.48c-0.16-0.57-0.38-1.11-0.67-1.61c-0.12-0.22-0.12-0.48,0.02-0.69l0.54-0.79c0.17-0.25,0.14-0.59-0.08-0.81l-0.92-0.92c-0.22-0.22-0.55-0.25-0.81-0.07l-0.8,0.54c-0.2,0.14-0.47,0.14-0.69,0.02c-0.5-0.28-1.04-0.51-1.6-0.66c-0.24-0.07-0.43-0.25-0.48-0.5l-0.18-0.95c-0.06-0.3-0.32-0.52-0.63-0.52h-1.3c-0.31,0-0.57,0.22-0.63,0.52l-0.18,0.95c-0.05,0.25-0.23,0.43-0.48,0.5c-0.57,0.16-1.1,0.38-1.6,0.66c-0.22,0.13-0.48,0.12-0.69-0.02l-0.8-0.54c-0.25-0.17-0.59-0.14-0.81,0.08l-0.92,0.92c-0.22,0.22-0.25,0.56-0.08,0.81l0.54,0.79c0.14,0.2,0.14,0.47,0.02,0.69c-0.29,0.5-0.51,1.04-0.67,1.61c-0.07,0.24-0.25,0.43-0.5,0.48l-0.94,0.18c-0.3,0.06-0.52,0.32-0.52,0.63v1.3c0,0.31,0.22,0.57,0.52,0.63l0.94,0.18c0.25,0.05,0.43,0.23,0.5,0.48c0.16,0.57,0.38,1.11,0.67,1.61c0.12,0.22,0.12,0.48-0.02,0.69l-0.54,0.79c-0.17,0.25-0.14,0.59,0.08,0.81l0.92,0.92c0.22,0.22,0.55,0.25,0.81,0.08l0.8-0.54c0.2-0.14,0.47-0.14,0.69-0.02c0.5,0.28,1.03,0.5,1.6,0.66c0.24,0.07,0.43,0.25,0.48,0.5l0.18,0.95c0.06,0.3,0.32,0.52,0.63,0.52h1.3c0.31,0,0.57-0.22,0.63-0.52l0.18-0.95c0.05-0.25,0.24-0.43,0.48-0.5c0.57-0.16,1.1-0.38,1.6-0.66c0.22-0.12,0.48-0.12,0.69,0.02l0.8,0.54c0.25,0.17,0.59,0.14,0.81-0.07l0.92-0.92c0.22-0.22,0.25-0.56,0.08-0.81l-0.54-0.79c-0.14-0.2-0.14-0.47-0.02-0.69c0.28-0.5,0.51-1.04,0.67-1.61c0.07-0.24,0.25-0.43,0.5-0.48l0.94-0.18c0.3-0.06,0.52-0.32,0.52-0.63v-1.3C51.95,46.49,51.73,46.23,51.43,46.17z M43.07,51.35c-2.15,0-3.9-1.75-3.9-3.9c0-2.15,1.75-3.9,3.9-3.9c2.15,0,3.9,1.75,3.9,3.9C46.97,49.6,45.22,51.35,43.07,51.35z"></path>
    <path fill="#241c70" d="M43.71,56.87h-1.3c-0.57,0-1.06-0.4-1.16-0.96l-0.18-0.95c-0.01-0.05-0.07-0.07-0.09-0.08c-0.6-0.17-1.18-0.4-1.72-0.71c-0.04-0.02-0.08-0.03-0.11-0.01l-0.8,0.55c-0.47,0.31-1.1,0.25-1.5-0.14l-0.92-0.92c-0.4-0.4-0.46-1.03-0.14-1.5l0.54-0.8c0.02-0.03,0.02-0.08-0.01-0.12c-0.31-0.54-0.55-1.12-0.72-1.73c-0.01-0.02-0.03-0.08-0.08-0.09l-0.94-0.18c-0.56-0.1-0.96-0.59-0.96-1.16v-1.3c0-0.57,0.41-1.06,0.96-1.16l0.94-0.18c0.05-0.01,0.07-0.07,0.08-0.09c0.17-0.6,0.41-1.18,0.72-1.73c0.02-0.04,0.02-0.08,0.01-0.11l-0.54-0.8c-0.32-0.47-0.26-1.1,0.14-1.5l0.92-0.92c0.4-0.4,1.02-0.46,1.49-0.15l0.81,0.55c0.03,0.02,0.07,0.02,0.11,0c0.54-0.3,1.12-0.54,1.73-0.71c0.02-0.01,0.08-0.03,0.09-0.08l0.18-0.95c0.1-0.56,0.59-0.96,1.16-0.96h1.3c0.57,0,1.06,0.4,1.16,0.96l0.18,0.94c0.01,0.04,0.05,0.07,0.09,0.08c0.6,0.17,1.18,0.4,1.72,0.71c0.04,0.02,0.09,0.02,0.11,0.01l0.8-0.54c0.47-0.32,1.1-0.26,1.5,0.14l0.92,0.92c0.4,0.4,0.46,1.03,0.14,1.5l-0.54,0.8c-0.02,0.03-0.02,0.08,0.01,0.12c0.31,0.54,0.55,1.12,0.72,1.73c0.01,0.02,0.03,0.08,0.08,0.09l0.94,0.18c0.56,0.1,0.96,0.59,0.96,1.16v1.3c0,0.57-0.41,1.06-0.96,1.16l-0.94,0.18c-0.05,0.01-0.07,0.07-0.08,0.09c-0.16,0.6-0.41,1.18-0.72,1.73c-0.02,0.04-0.02,0.08-0.01,0.11l0.54,0.8c0.32,0.47,0.26,1.1-0.14,1.5l-0.92,0.92c-0.4,0.4-1.03,0.46-1.5,0.14l-0.8-0.54c-0.03-0.02-0.08-0.02-0.12,0.01c-0.53,0.3-1.11,0.54-1.72,0.71c-0.03,0.01-0.08,0.04-0.09,0.08l-0.18,0.94C44.77,56.46,44.28,56.87,43.71,56.87z M39.21,53.07c0.21,0,0.42,0.05,0.61,0.16c0.45,0.26,0.95,0.46,1.47,0.6c0.45,0.13,0.78,0.48,0.86,0.92l0.18,0.95c0.01,0.04,0.05,0.07,0.09,0.07h1.3c0.05,0,0.08-0.03,0.09-0.07l0.18-0.95c0.09-0.44,0.41-0.79,0.86-0.92c0.53-0.15,1.03-0.35,1.49-0.61c0.4-0.22,0.9-0.21,1.26,0.04l0.8,0.54c0.04,0.03,0.09,0.02,0.12-0.01l0.92-0.92c0.03-0.03,0.04-0.08,0.01-0.12l-0.54-0.79c-0.25-0.36-0.27-0.86-0.04-1.26c0.27-0.47,0.47-0.97,0.62-1.49c0.13-0.45,0.48-0.78,0.92-0.86l0.94-0.18c0.04-0.01,0.08-0.05,0.08-0.09v-1.3c0-0.05-0.03-0.08-0.07-0.09c0,0,0,0,0,0l-0.94-0.18c-0.44-0.08-0.8-0.41-0.92-0.86c-0.14-0.52-0.35-1.02-0.62-1.49c-0.23-0.4-0.21-0.9,0.04-1.26l0.54-0.79c0.03-0.04,0.02-0.09-0.01-0.12l-0.92-0.92c-0.03-0.03-0.08-0.03-0.12-0.01l-0.8,0.54c-0.36,0.25-0.86,0.26-1.26,0.04c-0.46-0.26-0.96-0.47-1.48-0.61c-0.45-0.13-0.78-0.48-0.86-0.92l-0.18-0.95c-0.01-0.04-0.05-0.08-0.09-0.08h-1.3c-0.04,0-0.08,0.03-0.09,0.08l-0.18,0.95c-0.09,0.44-0.41,0.8-0.86,0.92c-0.53,0.15-1.02,0.35-1.48,0.61c-0.39,0.23-0.89,0.21-1.26-0.04l-0.8-0.54c-0.04-0.03-0.09-0.02-0.12,0.01L36.71,42c-0.03,0.03-0.04,0.08-0.01,0.12l0.54,0.79c0.25,0.36,0.27,0.86,0.04,1.26c-0.27,0.47-0.47,0.97-0.62,1.49c-0.13,0.45-0.48,0.78-0.92,0.86L34.8,46.7c-0.04,0.01-0.08,0.05-0.08,0.09v1.3c0,0.05,0.03,0.08,0.07,0.09l0.94,0.18c0.44,0.08,0.8,0.41,0.92,0.86c0.14,0.52,0.35,1.02,0.62,1.49c0.22,0.4,0.21,0.9-0.04,1.26l-0.54,0.79c-0.03,0.04-0.02,0.09,0.01,0.12l0.92,0.92c0.03,0.03,0.08,0.04,0.12,0.01l0.8-0.54C38.75,53.13,38.98,53.07,39.21,53.07z M43.06,51.89c-2.45,0-4.45-2-4.45-4.45c0-2.45,2-4.45,4.45-4.45s4.45,2,4.45,4.45C47.51,49.9,45.52,51.89,43.06,51.89z M43.06,44.08c-1.85,0-3.36,1.51-3.36,3.36c0,1.85,1.51,3.36,3.36,3.36c1.85,0,3.36-1.51,3.36-3.36C46.42,45.59,44.92,44.08,43.06,44.08z"></path>
    <path fill="#fff" d="M43.07,22.31v32.49c0,1.7-1.38,3.07-3.07,3.07H15.23c-1.7,0-3.07-1.38-3.07-3.07V22.31c0-1.7,1.38-3.07,3.07-3.07h24.76C41.69,19.24,43.07,20.62,43.07,22.31z"></path>
    <path d="M42.84,34.33C40.47,44.2,32.5,51.45,23.03,51.45c-4,0-7.72-1.29-10.87-3.52v6.88c0,1.7,1.37,3.07,3.07,3.07h24.76c1.69,0,3.07-1.37,3.07-3.07V34.33H42.84z" opacity=".08"></path>
    <path fill="#241c70" d="M39.99,58.41H15.23c-1.99,0-3.6-1.62-3.6-3.6v-32.5c0-1.99,1.62-3.6,3.6-3.6h24.76c1.99,0,3.6,1.62,3.6,3.6v32.5C43.6,56.8,41.98,58.41,39.99,58.41z M15.23,19.77c-1.4,0-2.54,1.14-2.54,2.54v32.5c0,1.4,1.14,2.54,2.54,2.54h24.76c1.4,0,2.54-1.14,2.54-2.54v-32.5c0-1.4-1.14-2.54-2.54-2.54H15.23z"></path>
    <path fill="#638df9" d="M34.25,18.19v2.33c0,0.52-0.42,0.94-0.94,0.94h-11.4c-0.52,0-0.94-0.42-0.94-0.94v-2.33c0-0.52,0.42-0.94,0.94-0.94h2.27c0.08-1.82,1.57-3.28,3.42-3.28c1.85,0,3.36,1.46,3.43,3.28h2.27C33.83,17.24,34.25,17.66,34.25,18.19z"></path>
    <path fill="#241c70" d="M33.31,21.99h-11.4c-0.81,0-1.47-0.66-1.47-1.47v-2.33c0-0.81,0.66-1.48,1.47-1.48h1.8c0.32-1.88,1.95-3.28,3.9-3.28c1.96,0,3.59,1.41,3.91,3.28h1.79c0.81,0,1.48,0.66,1.48,1.48v2.33C34.78,21.33,34.12,21.99,33.31,21.99z M21.91,17.78c-0.22,0-0.4,0.18-0.4,0.41v2.33c0,0.22,0.18,0.4,0.4,0.4h11.4c0.23,0,0.41-0.18,0.41-0.4v-2.33c0-0.23-0.18-0.41-0.41-0.41h-2.27c-0.29,0-0.52-0.23-0.53-0.51c-0.06-1.55-1.33-2.77-2.89-2.77c-1.55,0-2.82,1.22-2.89,2.77c-0.01,0.29-0.25,0.51-0.53,0.51H21.91z"></path>
    <path fill="#fff" d="M28.71,17c0,0.61-0.49,1.11-1.1,1.11c-0.61,0-1.11-0.49-1.11-1.11c0-0.61,0.5-1.1,1.11-1.1C28.22,15.9,28.71,16.39,28.71,17z"></path>
    <g>
      <rect width="3.88" height="2.91" x="15.78" y="51.27" fill="#638df9"></rect>
      <path fill="#241c70" d="M19.66,54.72h-3.88c-0.29,0-0.53-0.24-0.53-0.53v-2.91c0-0.29,0.24-0.53,0.53-0.53h3.88c0.29,0,0.53,0.24,0.53,0.53v2.91C20.19,54.48,19.96,54.72,19.66,54.72z M16.31,53.66h2.82v-1.85h-2.82V53.66z"></path>
      <rect width="3.88" height="7.64" x="22.37" y="46.54" fill="#638df9"></rect>
      <path fill="#241c70" d="M26.26,54.72h-3.88c-0.29,0-0.53-0.24-0.53-0.53v-7.65c0-0.29,0.24-0.53,0.53-0.53h3.88c0.29,0,0.53,0.24,0.53,0.53v7.65C26.79,54.48,26.55,54.72,26.26,54.72z M22.91,53.66h2.82v-6.58h-2.82V53.66z"></path>
      <g>
        <rect width="3.88" height="10.49" x="28.97" y="43.7" fill="#638df9"></rect>
        <path fill="#241c70" d="M32.85,54.72h-3.88c-0.29,0-0.53-0.24-0.53-0.53V43.7c0-0.29,0.24-0.53,0.53-0.53h3.88c0.29,0,0.53,0.24,0.53,0.53v10.49C33.38,54.48,33.15,54.72,32.85,54.72z M29.5,53.66h2.82v-9.42H29.5V53.66z"></path>
      </g>
      <g>
        <rect width="3.88" height="4.9" x="35.56" y="49.29" fill="#638df9"></rect>
        <path fill="#241c70" d="M39.45,54.72h-3.88c-0.29,0-0.53-0.24-0.53-0.53v-4.9c0-0.29,0.24-0.53,0.53-0.53h3.88c0.29,0,0.53,0.24,0.53,0.53v4.9C39.98,54.48,39.74,54.72,39.45,54.72z M36.1,53.66h2.82v-3.83H36.1V53.66z"></path>
      </g>
    </g>
    <g>
      <path fill="#241c70" d="M39.79,27H27.25c-0.29,0-0.53-0.24-0.53-0.53s0.24-0.53,0.53-0.53h12.54c0.29,0,0.53,0.24,0.53,0.53S40.08,27,39.79,27z"></path>
    </g>
    <g>
      <path fill="#f8c257" d="M21.93 26.26v3.83c0 .6-.49 1.09-1.09 1.09h-3.79c-.6 0-1.09-.49-1.09-1.09v-3.83c0-.6.49-1.09 1.09-1.09h3.79C21.44 25.17 21.93 25.66 21.93 26.26zM21.93 35.98v3.83c0 .6-.49 1.09-1.09 1.09h-3.79c-.6 0-1.09-.49-1.09-1.09v-3.83c0-.6.49-1.09 1.09-1.09h3.79C21.44 34.89 21.93 35.38 21.93 35.98z"></path>
      <path fill="#241c70" d="M34.98 30.43h-8.26c-.29 0-.53-.24-.53-.53 0-.29.24-.53.53-.53h8.26c.29 0 .53.24.53.53C35.52 30.19 35.28 30.43 34.98 30.43zM39.27 36.72H26.73c-.29 0-.53-.24-.53-.53s.24-.53.53-.53h12.54c.29 0 .53.24.53.53S39.57 36.72 39.27 36.72zM34.98 40.14h-8.26c-.29 0-.53-.24-.53-.53s.24-.53.53-.53h8.26c.29 0 .53.24.53.53S35.28 40.14 34.98 40.14zM18.48 29.33c-.02 0-.05 0-.07 0-.14-.02-.27-.1-.36-.21l-.62-.84c-.17-.24-.12-.57.11-.75.24-.18.57-.12.75.11l.29.39 1.11-.88c.23-.18.57-.15.75.09.18.23.14.57-.09.75l-1.54 1.22C18.72 29.29 18.6 29.33 18.48 29.33zM18.48 39.04c-.02 0-.05 0-.07 0-.14-.02-.27-.1-.36-.21l-.62-.84c-.17-.24-.12-.57.11-.75.24-.18.57-.12.75.11l.29.39 1.11-.88c.23-.18.57-.15.75.09.18.23.14.57-.09.75l-1.54 1.22C18.72 39 18.6 39.04 18.48 39.04z"></path>
    </g>
  </g>
</svg>
